<?xml version="1.0" encoding="UTF-8" standalone="no"?>
<svg
   width="168"
   height="43"
   viewBox="0 0 168 43"
   fill="none"
   version="1.1"
   id="svg9"
   sodipodi:docname="logo_new.svg"
   inkscape:version="1.4.2 (f4327f4, 2025-05-13)"
   xmlns:inkscape="http://www.inkscape.org/namespaces/inkscape"
   xmlns:sodipodi="http://sodipodi.sourceforge.net/DTD/sodipodi-0.dtd"
   xmlns="http://www.w3.org/2000/svg"
   xmlns:svg="http://www.w3.org/2000/svg">
  <defs
     id="defs9">
    <rect
       x="39.553903"
       y="5.6208178"
       width="121.99257"
       height="32.267658"
       id="rect15" />
    <rect
       x="58.498141"
       y="6.0371747"
       width="103.04833"
       height="31.643123"
       id="rect14" />
  </defs>
  <sodipodi:namedview
     id="namedview9"
     pagecolor="#505050"
     bordercolor="#ffffff"
     borderopacity="1"
     inkscape:showpageshadow="0"
     inkscape:pageopacity="0"
     inkscape:pagecheckerboard="1"
     inkscape:deskcolor="#505050"
     showgrid="false"
     inkscape:zoom="3.3966379"
     inkscape:cx="72.571762"
     inkscape:cy="13.10119"
     inkscape:window-width="1280"
     inkscape:window-height="733"
     inkscape:window-x="-6"
     inkscape:window-y="-6"
     inkscape:window-maximized="1"
     inkscape:current-layer="svg9" />
  <path
     d="M8.63281 8L15.8667 14.1803C16.2962 14.5472 16.5438 15.0856 16.5438 15.6527V20.3104L9.30979 14.1302C8.88033 13.7633 8.63281 13.2248 8.63281 12.6577V8Z"
     fill="#5044E5"
     id="path2" />
  <path
     d="M8.63281 35.9999L15.8667 29.8196C16.2962 29.4527 16.5438 28.9143 16.5438 28.3472V23.6895L9.30979 29.8697C8.88033 30.2366 8.63281 30.775 8.63281 31.3421V35.9999Z"
     fill="#5044E5"
     id="path3" />
  <path
     d="M0 14.5166L7.13558 20.5788C7.48152 20.8727 7.91958 21.0339 8.37228 21.0339H14.1268L7.00881 14.9731C6.66261 14.6784 6.22387 14.5166 5.77046 14.5166H0Z"
     fill="#5044E5"
     id="path4" />
  <path
     d="M0 29.4822L7.09169 23.4235C7.43826 23.1274 7.87793 22.9648 8.33245 22.9648H14.144L7.00839 29.027C6.66242 29.3209 6.22434 29.4822 5.77166 29.4822H0Z"
     fill="#5044E5"
     id="path5" />
  <path
     d="M26.3719 8L19.1379 14.1803C18.7085 14.5472 18.4609 15.0856 18.4609 15.6527V20.3104L25.6949 14.1302C26.1243 13.7633 26.3719 13.2248 26.3719 12.6577V8Z"
     fill="#5044E5"
     id="path6" />
  <path
     d="M26.3719 35.9999L19.1379 29.8196C18.7085 29.4527 18.4609 28.9143 18.4609 28.3472V23.6895L25.6949 29.8697C26.1243 30.2366 26.3719 30.775 26.3719 31.3421V35.9999Z"
     fill="#5044E5"
     id="path7" />
  <path
     d="M35.0019 14.5166L27.8663 20.5788C27.5204 20.8727 27.0822 21.0339 26.6296 21.0339H20.875L27.9931 14.9731C28.3392 14.6784 28.778 14.5166 29.2314 14.5166H35.0019Z"
     fill="#5044E5"
     id="path8" />
  <path
     d="M34.9994 29.4822L27.9077 23.4235C27.5612 23.1274 27.1214 22.9648 26.6669 22.9648H20.8555L27.991 29.027C28.337 29.3209 28.775 29.4822 29.2277 29.4822H34.9994Z"
     fill="#5044E5"
     id="path9" />
  <text
     xml:space="preserve"
     style="font-size:5.33333px;text-align:start;writing-mode:lr-tb;direction:ltr;text-anchor:start;white-space:pre;inline-size:75.6338;display:inline;fill:#5044e5;fill-opacity:1"
     x="56.624535"
     y="19.568773"
     id="text10" />
  <text
     xml:space="preserve"
     style="font-style:normal;font-variant:normal;font-weight:bold;font-stretch:normal;font-size:5.33333px;font-family:sans-serif;-inkscape-font-specification:'sans-serif Bold';text-align:start;writing-mode:lr-tb;direction:ltr;text-anchor:start;fill:#5044e5;fill-opacity:1"
     x="49.546467"
     y="21.858736"
     id="text11"><tspan
       sodipodi:role="line"
       id="tspan11"
       x="49.546467"
       y="21.858736" /></text>
  <text
     xml:space="preserve"
     style="font-style:normal;font-variant:normal;font-weight:bold;font-stretch:normal;font-size:5.33333px;font-family:sans-serif;-inkscape-font-specification:'sans-serif Bold';text-align:start;writing-mode:lr-tb;direction:ltr;text-anchor:start;fill:#5044e5;fill-opacity:1"
     x="58.706322"
     y="17.903345"
     id="text12"><tspan
       sodipodi:role="line"
       id="tspan12"
       x="58.706322"
       y="17.903345" /></text>
  <text
     xml:space="preserve"
     style="font-style:normal;font-variant:normal;font-weight:bold;font-stretch:normal;font-size:26.6667px;font-family:sans-serif;-inkscape-font-specification:'sans-serif Bold';text-align:start;writing-mode:lr-tb;direction:ltr;text-anchor:start;white-space:pre;inline-size:21.7435;display:inline;fill:#5044e5;fill-opacity:1"
     x="60.371746"
     y="19.776953"
     id="text13" />
  <text
     xml:space="preserve"
     id="text14"
     style="font-style:normal;font-variant:normal;font-weight:bold;font-stretch:normal;font-size:26.6667px;font-family:sans-serif;-inkscape-font-specification:'sans-serif Bold';text-align:start;writing-mode:lr-tb;direction:ltr;white-space:pre;shape-inside:url(#rect14);display:inline;fill:#5044e5;fill-opacity:1" />
  <text
     xml:space="preserve"
     id="text15"
     style="font-style:normal;font-variant:normal;font-weight:bold;font-stretch:normal;font-size:19.1107px;font-family:sans-serif;-inkscape-font-specification:'sans-serif Bold';text-align:start;writing-mode:lr-tb;direction:ltr;white-space:pre;shape-inside:url(#rect15);display:inline;fill:#5044e5;fill-opacity:1"
     transform="matrix(1.0937978,-0.00167594,-0.04099789,1.4927577,-5.9471399,-1.3128224)"
     inkscape:transform-center-y="-1.4361867"
     inkscape:transform-center-x="0.20436164"><tspan
       x="39.554688"
       y="23.056365"
       id="tspan1">AI Chatbot</tspan></text>
</svg>
